<svg width="24" height="19" viewBox="0 0 24 19" fill="none" xmlns="http://www.w3.org/2000/svg">
<path d="M22.2744 8.59961H21.0439C20.5254 4.14355 16.6582 0.566406 12 0.566406C9.4248 0.566406 7.08691 1.69141 5.46973 3.44922C5.03906 3.87109 5.05664 4.43359 5.4082 4.75879C5.76855 5.09277 6.28711 5.09277 6.72656 4.68848C8.03613 3.27344 9.91699 2.38574 12 2.38574C15.709 2.38574 18.7061 5.10156 19.207 8.59961H17.8623C17.1855 8.59961 17.001 9.10059 17.3965 9.64551L19.4971 12.6162C19.8223 13.0557 20.3145 13.0645 20.6309 12.6162L22.7402 9.6543C23.1357 9.10059 22.96 8.59961 22.2744 8.59961ZM1.72559 10.7178H2.96484C3.4834 15.1738 7.35059 18.751 12 18.751C14.5928 18.751 16.9307 17.6172 18.5479 15.8594C18.9697 15.4375 18.9521 14.875 18.6006 14.5498C18.2402 14.2158 17.7305 14.2158 17.2822 14.6289C15.9902 16.0439 14.1094 16.9316 12 16.9316C8.2998 16.9316 5.30273 14.2158 4.80176 10.7178H6.1377C6.80566 10.7178 6.99902 10.2168 6.60352 9.67188L4.49414 6.70117C4.17773 6.26172 3.68555 6.25293 3.36914 6.70117L1.25977 9.66309C0.855469 10.2168 1.04004 10.7178 1.72559 10.7178Z" fill="currentColor"/>
</svg>
