<svg width="22" height="18" viewBox="0 0 22 18" fill="none" xmlns="http://www.w3.org/2000/svg">
<path d="M3.01953 17.8809H18.9629C20.8613 17.8809 21.8633 16.8965 21.8633 15.0156V5.78711C21.8633 3.90625 20.8613 2.92188 18.9629 2.92188H16.5635C15.8779 2.92188 15.6582 2.80762 15.2275 2.35938L14.5332 1.6123C14.0762 1.12891 13.6104 0.891602 12.7139 0.891602H9.22461C8.32812 0.891602 7.87109 1.12891 7.40527 1.6123L6.71094 2.35938C6.28906 2.79883 6.06055 2.92188 5.375 2.92188H3.01953C1.12109 2.92188 0.12793 3.90625 0.12793 5.78711V15.0156C0.12793 16.8965 1.12109 17.8809 3.01953 17.8809ZM3.13379 16.1318C2.33398 16.1318 1.87695 15.71 1.87695 14.8574V5.94531C1.87695 5.10156 2.33398 4.67969 3.13379 4.67969H5.88477C6.67578 4.67969 7.08008 4.53906 7.52832 4.05566L8.19629 3.31738C8.68848 2.78125 8.95215 2.64062 9.72559 2.64062H12.2129C12.9863 2.64062 13.25 2.78125 13.7334 3.30859L14.4102 4.05566C14.8584 4.53906 15.2627 4.67969 16.0537 4.67969H18.8486C19.6572 4.67969 20.1055 5.10156 20.1055 5.94531V14.8574C20.1055 15.71 19.6572 16.1318 18.8486 16.1318H3.13379ZM10.9912 14.9717C13.6279 14.9717 15.7373 12.8623 15.7373 10.2168C15.7373 7.57129 13.6279 5.46191 10.9912 5.46191C8.36328 5.46191 6.25391 7.57129 6.25391 10.2168C6.25391 12.8623 8.36328 14.9717 10.9912 14.9717ZM16.0361 7.07031C16.0361 7.71191 16.5547 8.21289 17.1875 8.2041C17.8027 8.2041 18.3213 7.70312 18.3213 7.07031C18.3213 6.45508 17.7939 5.92773 17.1875 5.92773C16.5547 5.92773 16.0361 6.45508 16.0361 7.07031ZM10.9912 13.3721C9.25977 13.3721 7.84473 11.9658 7.84473 10.2168C7.84473 8.45898 9.25098 7.06152 10.9912 7.06152C12.7402 7.06152 14.1465 8.45898 14.1465 10.2168C14.1465 11.9658 12.7402 13.3721 10.9912 13.3721Z" fill="currentColor"/>
</svg>
