<svg width="24" height="16" viewBox="0 0 24 16" fill="none" xmlns="http://www.w3.org/2000/svg">
<path d="M18.3281 15.6504C21.0703 15.6504 23.2324 13.6377 23.2324 11.124C23.2324 9.26074 22.1689 7.59961 20.4199 6.87012C20.4287 2.88867 17.5635 0.0234375 13.8809 0.0234375C11.543 0.0234375 9.78516 1.23633 8.68652 2.82715C6.4541 2.22949 4.10742 3.89062 4.01953 6.36914C2.00684 6.72949 0.767578 8.54004 0.767578 10.7373C0.767578 13.418 3.10547 15.6504 6.18164 15.6504H18.3281ZM11.3584 12.0469C11.042 12.0469 10.7871 11.9062 10.5674 11.625L8.59863 9.19043C8.44922 9.00586 8.37891 8.8125 8.37891 8.61035C8.37891 8.16211 8.73047 7.82812 9.16113 7.82812C9.43359 7.82812 9.66211 7.95117 9.8291 8.17969L11.3232 10.0869L14.2676 5.2002C14.4346 4.91895 14.6895 4.76074 14.9619 4.76074C15.4014 4.76074 15.7705 5.08594 15.7705 5.50781C15.7705 5.70996 15.665 5.9209 15.5684 6.0791L12.1143 11.6074C11.9385 11.8887 11.666 12.0469 11.3584 12.0469Z" fill="currentColor"/>
</svg>
