<svg width="26" height="16" viewBox="0 0 26 16" fill="none" xmlns="http://www.w3.org/2000/svg">
<path d="M13.0088 15.2832C20.2246 15.2832 25.0762 9.46484 25.0762 7.66309C25.0762 5.86133 20.207 0.0517578 13.0088 0.0517578C5.89844 0.0517578 0.923828 5.86133 0.923828 7.66309C0.923828 9.46484 5.88086 15.2832 13.0088 15.2832ZM13.0088 13.5605C7.40137 13.5605 2.96289 8.89355 2.96289 7.66309C2.96289 6.63477 7.40137 1.77441 13.0088 1.77441C18.5898 1.77441 23.0371 6.63477 23.0371 7.66309C23.0371 8.89355 18.5898 13.5605 13.0088 13.5605ZM13.0088 12.3828C15.6279 12.3828 17.7285 10.2295 17.7285 7.66309C17.7285 5.03516 15.6279 2.95215 13.0088 2.95215C10.3721 2.95215 8.2627 5.03516 8.27148 7.66309C8.28906 10.2295 10.3721 12.3828 13.0088 12.3828ZM13 9.18359C12.1562 9.18359 11.4707 8.49805 11.4707 7.66309C11.4707 6.82812 12.1562 6.14258 13 6.14258C13.8438 6.14258 14.5293 6.82812 14.5293 7.66309C14.5293 8.49805 13.8438 9.18359 13 9.18359Z" fill="currentColor"/>
</svg>
