<svg width="26" height="17" viewBox="0 0 26 17" fill="none" xmlns="http://www.w3.org/2000/svg">
<path d="M19.9346 16.4415C20.2158 16.714 20.6465 16.7316 20.9277 16.4415C21.2178 16.1427 21.2002 15.7208 20.9277 15.4484L6.02148 0.550916C5.74902 0.278455 5.29199 0.269666 5.01953 0.550916C4.75586 0.814588 4.75586 1.27162 5.01953 1.53529L19.9346 16.4415ZM13.0088 1.05189C11.4707 1.05189 10.082 1.31556 8.79004 1.74623L10.2139 3.17006C11.1016 2.92396 12.0156 2.77455 13.0088 2.77455C18.5986 2.77455 23.0371 7.6349 23.0371 8.66322C23.0371 9.35756 21.6309 11.1417 19.3896 12.548L20.708 13.8751C23.4678 12.0646 25.0762 9.70033 25.0762 8.66322C25.0762 6.86146 20.2246 1.05189 13.0088 1.05189ZM13.0088 16.2833C14.626 16.2833 16.1113 16.0021 17.4561 15.5363L16.0322 14.1124C15.083 14.3937 14.0811 14.5607 13.0088 14.5607C7.40137 14.5607 2.96289 9.89369 2.96289 8.66322C2.96289 8.07435 4.44824 6.18471 6.83008 4.70814L5.48535 3.36342C2.62012 5.19154 0.923828 7.61732 0.923828 8.66322C0.923828 10.465 5.88086 16.2833 13.0088 16.2833ZM17.377 10.3419C17.6055 9.83217 17.7285 9.25209 17.7285 8.66322C17.7285 6.03529 15.6279 3.95228 13.0088 3.95228C12.4023 3.95228 11.8398 4.07533 11.3213 4.28627L17.377 10.3419ZM13.0088 13.3829C13.6768 13.3829 14.3096 13.2247 14.8809 12.9523L8.70215 6.77357C8.4209 7.34486 8.27148 7.98646 8.27148 8.67201C8.28027 11.2296 10.3721 13.3829 13.0088 13.3829Z" fill="currentColor"/>
</svg>
