<svg width="22" height="21" viewBox="0 0 22 21" fill="none" xmlns="http://www.w3.org/2000/svg">
<path d="M11 19.3818C11.2109 19.3818 11.4131 19.3643 11.6328 19.3467L12.125 20.2783C12.2305 20.5156 12.4678 20.6299 12.7402 20.5947C12.9951 20.5508 13.1709 20.3574 13.2061 20.0938L13.3555 19.0479C13.7686 18.9424 14.1729 18.7842 14.5596 18.6172L15.333 19.3115C15.5176 19.4961 15.7725 19.5225 16.0273 19.3906C16.2471 19.2588 16.335 19.0215 16.291 18.7578L16.0713 17.7383C16.4141 17.4922 16.748 17.2197 17.0645 16.9209L18.0137 17.3164C18.2686 17.4219 18.5059 17.3604 18.6992 17.1406C18.8574 16.9561 18.8838 16.6924 18.7432 16.4639L18.1895 15.5762C18.4268 15.2334 18.6289 14.8555 18.8135 14.46L19.8682 14.5127C20.123 14.5303 20.3516 14.3809 20.4395 14.1348C20.5273 13.8887 20.4395 13.6338 20.2373 13.4756L19.4199 12.8252C19.5254 12.4209 19.6045 11.999 19.6396 11.5596L20.6328 11.2432C20.8877 11.1553 21.0459 10.9531 21.0459 10.6895C21.0459 10.4258 20.8877 10.2236 20.6328 10.1357L19.6396 9.81934C19.6045 9.37988 19.5166 8.9668 19.4199 8.55371L20.2373 7.90332C20.4395 7.75391 20.5186 7.50781 20.4395 7.26172C20.3516 7.00684 20.123 6.85742 19.8682 6.875L18.8135 6.91016C18.6289 6.52344 18.4268 6.1543 18.1895 5.80273L18.7432 4.90625C18.875 4.69531 18.8574 4.43164 18.6992 4.24707C18.5059 4.02734 18.2686 3.96582 18.0137 4.07129L17.0557 4.45801C16.748 4.16797 16.4141 3.88672 16.0713 3.64941L16.291 2.62988C16.335 2.35742 16.2471 2.12012 16.0186 1.99707C15.7725 1.86523 15.5176 1.88281 15.333 2.07617L14.5596 2.76172C14.1729 2.58594 13.7686 2.44531 13.3555 2.33105L13.2061 1.30273C13.1709 1.03906 12.9951 0.845703 12.7402 0.792969C12.4678 0.757812 12.2393 0.87207 12.125 1.0918L11.6328 2.03223C11.4131 2.01465 11.2109 2.00586 11 2.00586C10.7715 2.00586 10.5693 2.01465 10.3496 2.03223L9.85742 1.0918C9.75195 0.87207 9.51465 0.757812 9.24219 0.801758C8.9873 0.845703 8.81152 1.03906 8.77637 1.30273L8.62695 2.33105C8.22266 2.44531 7.81836 2.58594 7.42285 2.76172L6.6582 2.07617C6.46484 1.8916 6.20996 1.86523 5.96387 1.99707C5.74414 2.12012 5.64746 2.35742 5.69141 2.62988L5.91113 3.64941C5.56836 3.88672 5.23438 4.16797 4.92676 4.45801L3.96875 4.07129C3.72266 3.96582 3.47656 4.02734 3.29199 4.24707C3.125 4.43164 3.10742 4.69531 3.23926 4.90625L3.80176 5.80273C3.56445 6.1543 3.3623 6.52344 3.16895 6.91016L2.12305 6.875C1.85938 6.85742 1.63086 7.00684 1.55176 7.26172C1.46387 7.50781 1.53418 7.75391 1.74512 7.90332L2.57129 8.55371C2.46582 8.9668 2.37793 9.37988 2.35156 9.81934L1.3584 10.1357C1.09473 10.2236 0.945312 10.417 0.945312 10.6895C0.945312 10.9531 1.09473 11.1553 1.3584 11.2432L2.35156 11.5596C2.37793 11.999 2.46582 12.4209 2.57129 12.8252L1.75391 13.4756C1.54297 13.625 1.47266 13.8799 1.55176 14.126C1.63086 14.3809 1.85938 14.5303 2.12305 14.5127L3.16895 14.46C3.35352 14.8555 3.56445 15.2334 3.80176 15.5762L3.23926 16.4727C3.09863 16.6924 3.125 16.9561 3.29199 17.1406C3.47656 17.3604 3.72266 17.4219 3.96875 17.3164L4.92676 16.9209C5.23438 17.2197 5.56836 17.4922 5.91113 17.7383L5.69141 18.7578C5.64746 19.0215 5.73535 19.2588 5.96387 19.3906C6.20996 19.5225 6.46484 19.4961 6.6582 19.3115L7.42285 18.6172C7.81836 18.7842 8.21387 18.9424 8.62695 19.0566L8.77637 20.0938C8.81152 20.3574 8.9873 20.5508 9.25098 20.5947C9.51465 20.6299 9.75195 20.5156 9.85742 20.2871L10.3496 19.3467C10.5693 19.3643 10.7715 19.3818 11 19.3818ZM13.2939 9.99512C12.8633 8.86133 11.9844 8.24609 10.9473 8.24609C10.7979 8.24609 10.6396 8.26367 10.3672 8.3252L7.99414 4.24707C8.89941 3.8252 9.91016 3.58789 10.9912 3.58789C14.709 3.58789 17.627 6.38281 17.9609 9.99512H13.2939ZM3.99512 10.6982C3.99512 8.34277 5.07617 6.27734 6.79004 4.98535L9.18066 9.07227C8.71484 9.58203 8.49512 10.1445 8.49512 10.7246C8.49512 11.2783 8.69727 11.8057 9.18066 12.3418L6.71973 16.3584C5.0498 15.0664 3.99512 13.0186 3.99512 10.6982ZM9.89258 10.7158C9.89258 10.1182 10.3936 9.66113 10.9561 9.66113C11.5449 9.66113 12.0283 10.1182 12.0283 10.7158C12.0283 11.2959 11.5449 11.7793 10.9561 11.7793C10.3936 11.7793 9.89258 11.2959 9.89258 10.7158ZM10.9912 17.7998C9.88379 17.7998 8.84668 17.5537 7.92383 17.1055L10.3584 13.1152C10.6221 13.168 10.7979 13.1855 10.9473 13.1855C11.9932 13.1855 12.8633 12.5527 13.2939 11.3926H17.9609C17.627 15.0049 14.709 17.7998 10.9912 17.7998Z" fill="currentColor"/>
</svg>
