<svg width="22" height="20" viewBox="0 0 22 20" fill="none" xmlns="http://www.w3.org/2000/svg">
<path d="M0.250977 9.21484C0.250977 9.67188 0.602539 10.0674 1.16504 10.0674C1.4375 10.0674 1.68359 9.91797 1.90332 9.74219L10.6221 2.4209C10.8682 2.20996 11.1494 2.20996 11.3955 2.4209L20.1055 9.74219C20.3164 9.91797 20.5625 10.0674 20.835 10.0674C21.3535 10.0674 21.749 9.74219 21.749 9.23242C21.749 8.93359 21.6348 8.69629 21.4062 8.50293L18.9365 6.42871V2.77246C18.9365 2.37695 18.6816 2.13086 18.2861 2.13086H17.0732C16.6865 2.13086 16.4229 2.37695 16.4229 2.77246V4.31055L12.2568 0.8125C11.4922 0.170898 10.5254 0.170898 9.76074 0.8125L0.602539 8.50293C0.365234 8.69629 0.250977 8.95996 0.250977 9.21484ZM3.10742 17.1162C3.10742 18.3818 3.89844 19.1465 5.20801 19.1465H16.8008C18.1016 19.1465 18.9014 18.3818 18.9014 17.1162V10.4365L11.5449 4.27539C11.2021 3.97656 10.7891 3.98535 10.4551 4.27539L3.10742 10.4365V17.1162ZM13.3115 17.4941H8.69727V11.8691C8.69727 11.4561 8.96973 11.1924 9.38281 11.1924H12.6348C13.0479 11.1924 13.3115 11.4561 13.3115 11.8691V17.4941Z" fill="currentColor"/>
</svg>
