<svg width="24" height="20" viewBox="0 0 24 20" fill="none" xmlns="http://www.w3.org/2000/svg">
<path d="M14.6631 13.4424V15.2002H18.7852C21.5449 15.2002 23.2324 13.5654 23.2324 11.333C23.2324 9.46973 22.1689 7.9668 20.4199 7.27246C20.4287 3.2998 17.5635 0.43457 13.8809 0.43457C11.543 0.43457 9.78516 1.63867 8.68652 3.22949C6.58594 2.71094 4.10742 4.30176 4.01953 6.78027C2.00684 7.12305 0.767578 8.79297 0.767578 10.9199C0.767578 13.2842 2.56934 15.2002 5.49609 15.2002H9.30176V13.4424H5.49609C3.58008 13.4424 2.54297 12.2998 2.54297 10.8848C2.54297 9.24121 3.62402 8.08984 5.41699 8.08984C5.54883 8.08984 5.60156 8.01953 5.59277 7.89648C5.54004 5.27734 7.41211 4.43359 9.30176 4.9873C9.41602 5.01367 9.48633 4.99609 9.53906 4.89941C10.3828 3.36133 11.6924 2.18359 13.8721 2.18359C16.6318 2.18359 18.6006 4.37207 18.7324 6.92969C18.7588 7.39551 18.7236 7.91406 18.6885 8.33594C18.6709 8.45898 18.7236 8.5293 18.8379 8.54688C20.4463 8.85449 21.457 9.78613 21.457 11.2539C21.457 12.5371 20.5605 13.4424 18.75 13.4424H14.6631ZM11.9824 19.5947C12.4395 19.5947 12.8086 19.2256 12.8086 18.7861V10.6914L12.7207 9.12695L13.2832 9.77734L14.5049 11.0078C14.6543 11.166 14.8564 11.2539 15.0586 11.2539C15.4629 11.2539 15.7969 10.9551 15.7969 10.542C15.7969 10.3311 15.7178 10.1641 15.5596 10.0234L12.6064 7.24609C12.3867 7.04395 12.2021 6.96484 11.9824 6.96484C11.7715 6.96484 11.5781 7.04395 11.3584 7.24609L8.40527 10.0234C8.24707 10.1641 8.17676 10.3311 8.17676 10.542C8.17676 10.9551 8.50195 11.2539 8.90625 11.2539C9.1084 11.2539 9.31055 11.166 9.45996 11.0078L10.6816 9.77734L11.2529 9.12695L11.1562 10.6914V18.7861C11.1562 19.2256 11.5342 19.5947 11.9824 19.5947Z" fill="currentColor"/>
</svg>
