<svg width="14" height="20" viewBox="0 0 14 20" fill="none" xmlns="http://www.w3.org/2000/svg">
<path d="M7 12.957C8.78418 12.957 10.1025 11.6211 10.1025 9.66992V3.74609C10.1025 1.79492 8.78418 0.458984 7 0.458984C5.21582 0.458984 3.89746 1.79492 3.89746 3.74609V9.66992C3.89746 11.6211 5.21582 12.957 7 12.957ZM0.285156 9.87207C0.285156 13.5107 2.70215 15.998 6.18262 16.332V18.1162H2.95703C2.49121 18.1162 2.10449 18.4854 2.10449 18.9512C2.10449 19.4082 2.49121 19.7861 2.95703 19.7861H11.043C11.5088 19.7861 11.8955 19.4082 11.8955 18.9512C11.8955 18.4854 11.5088 18.1162 11.043 18.1162H7.81738V16.332C11.2979 15.998 13.7148 13.5107 13.7148 9.87207V8.14062C13.7148 7.6748 13.3457 7.31445 12.8799 7.31445C12.4141 7.31445 12.0273 7.6748 12.0273 8.14062V9.81055C12.0273 12.8076 9.99707 14.7764 7 14.7764C4.00293 14.7764 1.97266 12.8076 1.97266 9.81055V8.14062C1.97266 7.6748 1.59473 7.31445 1.12891 7.31445C0.663086 7.31445 0.285156 7.6748 0.285156 8.14062V9.87207Z" fill="currentColor"/>
</svg>
