<svg width="12" height="15" viewBox="0 0 12 15" fill="none" xmlns="http://www.w3.org/2000/svg">
<path d="M1.63185 14.9668H3.69728C4.53224 14.9668 4.9629 14.5361 4.9629 13.7012V1.60742C4.9629 0.754883 4.53224 0.350586 3.69728 0.341797H1.63185C0.796885 0.341797 0.366221 0.772461 0.366221 1.60742V13.7012C0.357432 14.5361 0.788096 14.9668 1.63185 14.9668ZM8.31153 14.9668H10.3682C11.2031 14.9668 11.6338 14.5361 11.6338 13.7012V1.60742C11.6338 0.754883 11.2031 0.341797 10.3682 0.341797H8.31153C7.46778 0.341797 7.04591 0.772461 7.04591 1.60742V13.7012C7.04591 14.5361 7.46778 14.9668 8.31153 14.9668Z" fill="currentColor"/>
</svg>
