<svg width="20" height="17" viewBox="0 0 20 17" fill="none" xmlns="http://www.w3.org/2000/svg">
<path d="M1.71191 11.5547C1.02637 11.5547 0.841797 12.0557 1.24609 12.6094L3.35547 15.5625C3.67188 16.0195 4.16406 16.0107 4.48047 15.5625L6.58984 12.6006C6.98535 12.0557 6.79199 11.5547 6.12402 11.5547H4.82324V5.07715C4.82324 3.61816 5.71094 2.68652 6.9502 2.68652C8.18945 2.68652 9.09473 3.60059 9.09473 5.07715V11.0977C9.09473 13.708 10.7559 15.4395 13.0498 15.4395C15.3877 15.4395 16.9873 13.7168 16.9873 11.0977V4.67285H18.2969C18.9648 4.67285 19.1494 4.17188 18.7627 3.62695L16.6533 0.65625C16.3369 0.216797 15.8447 0.208008 15.5195 0.65625L13.4102 3.61816C13.0146 4.17188 13.1992 4.67285 13.876 4.67285H15.1768V11.2295C15.1768 12.6885 14.2891 13.6201 13.0498 13.6201C11.8105 13.6201 10.9053 12.7061 10.9053 11.2295V5.20898C10.9053 2.59863 9.24414 0.875977 6.9502 0.875977C4.6123 0.875977 3.0127 2.58984 3.0127 5.20898V11.5547H1.71191Z" fill="currentColor"/>
</svg>
