<svg width="20" height="19" viewBox="0 0 20 19" fill="none" xmlns="http://www.w3.org/2000/svg">
<path d="M9.99121 18.7598C14.9746 18.7598 19.0879 14.6465 19.0879 9.66309C19.0879 4.68848 14.9658 0.575195 9.98242 0.575195C5.00781 0.575195 0.90332 4.68848 0.90332 9.66309C0.90332 14.6465 5.0166 18.7598 9.99121 18.7598ZM7.74121 14.9365C7.08203 14.9365 6.69531 14.585 6.66895 13.9258L6.36133 6.97363H5.68457C5.43848 6.97363 5.23633 6.78906 5.24512 6.54297C5.24512 6.28809 5.43848 6.09473 5.68457 6.09473H7.75879V5.43555C7.75879 4.66211 8.26855 4.17871 9.12109 4.17871H10.835C11.6875 4.17871 12.2148 4.66211 12.2148 5.43555V6.09473H14.2715C14.5264 6.09473 14.7285 6.28809 14.7197 6.54297C14.7109 6.78906 14.5264 6.97363 14.2715 6.97363H13.6211L13.3135 13.9258C13.2871 14.585 12.8828 14.9365 12.2324 14.9365H7.74121ZM8.74316 6.09473H11.2129L11.2041 5.4707C11.2041 5.24219 11.0459 5.09277 10.7998 5.09277H9.15625C8.91016 5.09277 8.75195 5.24219 8.74316 5.4707V6.09473ZM8.44434 13.5391C8.64648 13.5391 8.77832 13.4072 8.77832 13.2227L8.60254 8.0459C8.60254 7.84375 8.46191 7.7207 8.26855 7.7207C8.04883 7.7207 7.92578 7.84375 7.93457 8.05469L8.10156 13.2227C8.11035 13.4072 8.25098 13.5391 8.44434 13.5391ZM9.97363 13.5391C10.1846 13.5391 10.3252 13.4072 10.3252 13.2227V8.0459C10.3252 7.84375 10.1846 7.7207 9.97363 7.7207C9.7627 7.7207 9.63965 7.84375 9.63965 8.0459V13.2227C9.63965 13.4072 9.7627 13.5391 9.97363 13.5391ZM11.5029 13.5391C11.6963 13.5391 11.8369 13.4072 11.8457 13.2227L12.0127 8.05469C12.0215 7.84375 11.8984 7.7207 11.6875 7.7207C11.4854 7.7207 11.3447 7.84375 11.3447 8.0459L11.1689 13.2227C11.1689 13.4072 11.3008 13.5391 11.5029 13.5391Z" fill="currentColor"/>
</svg>
