<svg width="22" height="17" viewBox="0 0 22 17" fill="none" xmlns="http://www.w3.org/2000/svg">
<path d="M11.0088 11.6514C11.624 11.6514 12.0019 11.2646 12.0195 10.623C12.0547 7.74902 12.1162 4.24219 12.1338 1.46484C12.1338 0.823242 11.6504 0.357422 11 0.357422C10.3496 0.357422 9.86618 0.823242 9.86618 1.46484C9.89255 4.24219 9.95407 7.74902 9.98923 10.623C10.0068 11.2646 10.3847 11.6514 11.0088 11.6514ZM8.53903 1.47363C5.39255 2.04492 2.54489 3.62695 0.839812 5.72754C0.699187 5.88574 0.699187 6.12305 0.866179 6.29883L2.10544 7.55566C2.2988 7.74902 2.58005 7.74902 2.77341 7.53809C4.3818 5.83301 6.37692 4.73438 8.59176 4.29492L8.53903 1.47363ZM13.4433 1.48242L13.3906 4.30371C15.6142 4.72559 17.5918 5.8418 19.2353 7.55566C19.4199 7.74023 19.6924 7.73145 19.8857 7.53809L21.1162 6.29883C21.292 6.12305 21.292 5.88574 21.1513 5.72754C19.4287 3.63574 16.6074 2.01855 13.4433 1.48242ZM13.373 6.75586L13.3203 9.7002C14.1992 10.0342 14.9726 10.5703 15.5615 11.2031C15.7461 11.4053 16.0009 11.3965 16.2119 11.1943L17.5918 9.84961C17.7588 9.69141 17.7675 9.46289 17.6269 9.2959C16.6601 8.13574 15.1396 7.17773 13.373 6.75586ZM8.62692 6.75586C6.86032 7.19531 5.3486 8.11816 4.36423 9.2959C4.21481 9.46289 4.2236 9.68262 4.39938 9.84961L5.78805 11.2119C5.99899 11.4141 6.27145 11.3965 6.4736 11.168C7.04489 10.5439 7.81833 10.0254 8.67087 9.69141L8.62692 6.75586ZM11 16.125C11.8437 16.125 12.5293 15.457 12.5293 14.6221C12.5293 13.7871 11.8437 13.1191 11 13.1191C10.1562 13.1191 9.46188 13.7871 9.46188 14.6221C9.46188 15.457 10.1562 16.125 11 16.125Z" fill="currentColor"/>
</svg>
