<svg width="16" height="15" viewBox="0 0 16 15" fill="none" xmlns="http://www.w3.org/2000/svg">
<path d="M1.18848 13.0508C0.819336 13.4199 0.801758 14.0791 1.19727 14.4658C1.58398 14.8525 2.24316 14.8438 2.6123 14.4746L7.99121 9.08691L13.3789 14.4746C13.7568 14.8525 14.4072 14.8525 14.7939 14.4658C15.1719 14.0703 15.1807 13.4287 14.7939 13.0508L9.41504 7.66309L14.7939 2.28418C15.1807 1.90625 15.1807 1.25586 14.7939 0.869141C14.3984 0.491211 13.7568 0.482422 13.3789 0.860352L7.99121 6.24805L2.6123 0.860352C2.24316 0.491211 1.5752 0.473633 1.19727 0.869141C0.810547 1.25586 0.819336 1.91504 1.18848 2.28418L6.57617 7.66309L1.18848 13.0508Z" fill="currentColor"/>
</svg>
